<?xml version="1.0" standalone="no"?>
<!DOCTYPE svg PUBLIC "-//W3C//DTD SVG 20010904//EN"
 "http://www.w3.org/TR/2001/REC-SVG-20010904/DTD/svg10.dtd">
<svg version="1.0" xmlns="http://www.w3.org/2000/svg"
 width="1200.000000pt" height="1200.000000pt" viewBox="0 0 1200.000000 1200.000000"
 preserveAspectRatio="xMidYMid meet">
<metadata>
Created by potrace 1.11, written by Peter Selinger 2001-2013
</metadata>
<g transform="translate(0.000000,1200.000000) scale(0.100000,-0.100000)"
fill="#000000" stroke="none">
<path d="M5106 8829 c-14 -11 -26 -24 -26 -29 0 -4 -44 -99 -99 -211 -146
-302 -405 -836 -519 -1069 -351 -721 -382 -787 -382 -810 0 -45 40 -68 210
-119 91 -27 219 -66 284 -86 128 -39 172 -40 194 -5 49 80 235 492 240 533 0
4 15 51 33 105 l33 97 32 -125 c34 -133 98 -354 113 -392 5 -13 29 -75 52
-138 54 -148 152 -352 176 -366 14 -8 750 -252 840 -279 14 -4 79 14 180 49
87 29 187 64 223 76 36 13 74 26 85 31 20 8 292 104 525 184 598 207 620 217
620 267 0 10 -52 146 -116 301 -65 155 -127 307 -139 337 -253 627 -681 1639
-698 1653 -25 20 -48 19 -157 -11 -80 -21 -230 -48 -320 -57 -30 -3 -68 -7
-85 -9 -182 -25 -716 -25 -850 0 -10 2 -37 6 -60 10 -80 11 -173 34 -248 59
-92 30 -107 31 -141 4z m1777 -161 c22 -56 272 -662 286 -693 10 -22 26 -62
36 -90 10 -27 25 -59 32 -70 7 -11 13 -25 13 -32 0 -7 11 -36 24 -65 18 -39
434 -1043 463 -1114 2 -7 -106 -50 -274 -108 -428 -150 -472 -166 -558 -196
-44 -16 -125 -44 -180 -63 -55 -20 -160 -57 -233 -83 -77 -27 -137 -43 -142
-38 -4 5 -41 88 -80 184 -40 96 -81 195 -92 219 -10 24 -27 64 -38 90 -20 52
-567 1368 -636 1531 -106 253 -211 505 -210 506 1 1 30 -4 66 -12 36 -8 83
-16 105 -19 22 -3 51 -8 65 -10 130 -28 680 -27 930 0 118 13 263 38 321 54
79 23 96 24 102 9z m-1680 -203 c25 -60 55 -135 67 -165 13 -30 31 -73 41 -95
16 -37 417 -1001 499 -1200 37 -90 314 -756 344 -827 12 -29 13 -38 4 -37 -7
0 -150 46 -317 102 l-304 102 -57 135 c-56 133 -160 427 -198 565 -49 173 -73
263 -77 286 -24 122 -55 233 -70 249 -33 36 -105 20 -123 -27 -10 -27 -93
-288 -98 -308 -2 -11 -101 -271 -132 -351 -15 -37 -106 -233 -117 -252 -1 -1
-76 21 -166 49 -90 28 -179 55 -196 61 -18 5 -33 11 -33 13 0 7 86 186 220
460 73 149 154 315 180 370 26 55 96 199 155 320 59 121 156 321 216 444 60
123 111 222 113 220 2 -2 24 -53 49 -114z"/>
<path d="M4366 4697 c-33 -33 -33 -71 -1 -102 13 -14 36 -25 50 -25 33 0 75
41 75 73 0 34 -29 66 -67 73 -26 5 -37 1 -57 -19z"/>
<path d="M7375 4613 c0 -71 -3 -88 -15 -89 -8 -1 -21 -2 -27 -3 -9 -1 -13 -19
-13 -56 0 -54 1 -55 28 -55 l28 0 1 -88 c1 -102 16 -145 69 -191 40 -35 89
-51 162 -51 l53 0 -3 57 -3 56 -60 3 c-50 1 -63 6 -82 28 -20 23 -23 38 -23
107 l0 79 85 0 86 0 -3 57 -3 57 -82 0 -83 -1 0 89 0 88 -57 0 -58 0 0 -87z"/>
<path d="M5190 4527 c-19 -6 -56 -32 -81 -58 -38 -37 -49 -57 -60 -104 -24
-108 14 -203 104 -263 35 -23 51 -27 111 -26 83 0 119 16 168 74 98 114 66
299 -65 366 -39 21 -131 27 -177 11z m135 -121 c34 -22 52 -64 49 -109 -6 -80
-70 -128 -140 -104 -46 15 -73 50 -78 102 -8 99 89 163 169 111z"/>
<path d="M6339 4528 c-13 -5 -38 -20 -55 -33 l-31 -24 -23 24 c-49 52 -50 48
-50 -280 l0 -305 55 0 c62 0 56 -12 58 121 l0 76 31 -15 c56 -28 120 -27 180
2 81 40 118 100 122 201 2 58 -1 78 -22 119 -28 56 -53 80 -111 107 -44 20
-109 23 -154 7z m126 -122 c34 -22 52 -64 49 -109 -6 -80 -70 -128 -140 -104
-46 15 -73 51 -78 102 -9 99 89 163 169 111z"/>
<path d="M6911 4526 c-157 -57 -201 -267 -81 -386 94 -95 234 -92 320 6 42 48
52 77 56 151 3 81 -17 132 -72 182 -62 58 -145 75 -223 47z m136 -121 c26 -18
46 -56 48 -95 5 -84 -77 -146 -151 -115 -95 40 -91 189 6 221 41 14 63 11 97
-11z"/>
<path d="M4817 4524 c-1 -1 -16 -4 -34 -7 -18 -3 -45 -14 -60 -25 l-28 -20
-18 24 c-10 13 -24 24 -32 24 -13 0 -15 -34 -15 -220 l0 -220 55 0 c30 0 55 3
56 8 0 4 1 67 2 139 2 123 4 134 25 155 17 18 37 24 90 28 l67 5 1 53 c0 28
-2 52 -5 53 -20 2 -103 4 -104 3z"/>
<path d="M5769 4520 c-14 -4 -37 -15 -51 -24 -23 -15 -26 -15 -43 4 -42 46
-45 33 -45 -200 l0 -220 58 0 57 0 0 140 c-1 131 1 141 22 166 31 37 88 36
120 -1 22 -24 23 -35 23 -166 l0 -139 58 0 57 0 -1 147 c-2 159 -7 181 -50
232 -49 59 -132 83 -205 61z"/>
<path d="M4358 4508 c-3 -11 -2 -396 1 -420 1 -5 26 -8 56 -8 l55 0 0 220 0
220 -54 0 c-34 0 -55 -5 -58 -12z"/>
<path d="M5159 3301 c-1 -20 0 -48 1 -63 1 -22 -3 -28 -19 -28 -18 0 -21 -6
-21 -40 0 -33 3 -40 20 -40 18 0 20 -7 20 -57 1 -90 1 -92 40 -135 34 -39 41
-42 98 -46 l62 -4 0 41 0 41 -40 0 c-60 0 -80 25 -80 100 l0 60 60 0 60 0 0
40 0 40 -60 0 -59 0 -3 62 -3 62 -37 1 c-37 1 -38 0 -39 -34z"/>
<path d="M7900 3274 c0 -57 -2 -64 -20 -64 -17 0 -20 -7 -20 -40 0 -33 3 -40
20 -40 18 0 20 -7 20 -65 0 -39 6 -78 16 -99 22 -44 78 -76 138 -76 l46 0 0
39 c0 38 0 38 -47 44 -59 6 -73 25 -73 99 l0 58 60 0 60 0 0 40 0 40 -60 0
-59 0 -3 62 -3 62 -37 2 -38 2 0 -64z"/>
<path d="M6850 3110 l0 -220 40 0 40 0 0 100 c0 87 3 103 20 120 11 11 29 20
40 20 11 0 29 -9 40 -20 17 -17 20 -33 20 -120 l0 -100 41 0 41 0 -4 121 -3
120 -43 41 c-42 39 -46 40 -98 36 l-54 -5 0 64 0 63 -40 0 -40 0 0 -220z"/>
<path d="M8200 3110 l0 -220 40 0 40 0 1 50 c0 28 1 74 1 102 1 76 44 110 94
74 22 -17 21 -10 23 -131 l1 -95 43 0 42 0 -2 91 c-2 131 -8 152 -55 194 -38
35 -44 37 -94 33 l-54 -5 0 64 0 63 -40 0 -40 0 0 -220z"/>
<path d="M2893 3195 c-79 -48 -105 -151 -58 -230 29 -50 78 -77 141 -77 45 0
107 30 117 56 7 19 -48 72 -58 56 -4 -7 -21 -18 -39 -25 -84 -36 -143 87 -69
145 34 26 55 25 91 -5 l29 -24 26 27 c24 25 25 30 12 49 -19 27 -75 53 -117
53 -18 0 -52 -11 -75 -25z"/>
<path d="M3270 3203 c-63 -32 -100 -113 -86 -187 7 -35 51 -101 76 -112 126
-55 249 29 238 163 -7 86 -62 143 -145 150 -33 3 -59 -1 -83 -14z m123 -91
c54 -56 19 -142 -56 -142 -84 0 -103 128 -24 160 37 15 52 11 80 -18z"/>
<path d="M4474 3205 c-92 -42 -122 -163 -62 -250 57 -84 172 -92 247 -18 12
12 9 19 -14 44 -25 25 -31 27 -44 15 -24 -21 -71 -38 -71 -25 0 10 55 81 112
144 16 16 28 33 28 37 0 4 -15 19 -34 33 -42 32 -117 41 -162 20z m79 -78
c-24 -39 -78 -107 -85 -107 -10 0 -10 17 -2 59 4 20 16 37 33 46 34 19 65 20
54 2z"/>
<path d="M4845 3203 c-58 -31 -95 -93 -95 -159 0 -46 35 -109 75 -134 57 -35
143 -28 190 16 l27 25 -27 29 -28 29 -25 -19 c-87 -69 -181 54 -97 128 34 28
56 28 93 -3 l29 -24 26 27 c24 25 25 30 12 49 -34 48 -123 67 -180 36z"/>
<path d="M5763 3204 c-112 -49 -122 -230 -17 -295 48 -29 120 -29 167 0 47 29
50 40 19 73 l-25 27 -25 -19 c-13 -11 -36 -20 -50 -20 l-26 0 30 33 c17 17 52
58 78 91 45 57 46 59 29 79 -40 44 -118 58 -180 31z m80 -77 c-24 -39 -78
-107 -85 -107 -12 0 -10 45 3 74 12 25 42 44 72 45 12 1 15 -3 10 -12z"/>
<path d="M6135 3206 c-88 -39 -121 -153 -71 -243 41 -73 137 -98 211 -54 38
22 55 21 55 -5 0 -8 7 -14 15 -14 10 0 15 10 15 33 4 277 0 318 -31 268 -13
-19 -13 -19 -54 5 -46 27 -94 30 -140 10z m121 -100 c39 -45 26 -108 -28 -131
-28 -11 -37 -11 -61 1 -75 39 -47 165 35 160 19 -2 40 -13 54 -30z"/>
<path d="M6556 3205 c-59 -32 -96 -97 -96 -170 0 -39 43 -107 82 -130 44 -26
119 -23 160 6 48 33 50 41 21 71 l-26 27 -25 -19 c-60 -48 -140 -4 -128 69 11
71 74 99 124 56 l31 -26 25 27 c18 20 22 32 16 44 -26 48 -131 74 -184 45z"/>
<path d="M7550 3202 c-36 -18 -76 -69 -86 -109 -12 -47 6 -113 42 -153 76 -84
204 -67 254 34 70 146 -70 299 -210 228z m102 -71 c20 -2 48 -48 48 -78 0 -94
-135 -114 -155 -22 -13 59 28 113 80 104 11 -2 23 -4 27 -4z"/>
<path d="M8686 3210 c-38 -12 -74 -47 -92 -89 -43 -102 21 -221 126 -234 44
-5 107 16 132 45 18 21 18 22 -8 49 l-27 28 -25 -19 c-13 -11 -35 -20 -49 -20
-21 0 -15 10 53 90 74 87 76 91 60 109 -40 44 -106 60 -170 41z m33 -130 c-23
-33 -46 -60 -51 -60 -12 0 -7 65 6 82 15 20 47 37 69 38 15 0 10 -11 -24 -60z"/>
<path d="M3600 3050 l0 -160 40 0 c45 0 43 -5 40 137 -1 50 2 65 19 82 26 26
55 27 81 1 17 -17 20 -33 20 -120 l0 -100 40 0 39 0 3 58 c5 101 -7 178 -33
210 -41 50 -116 66 -173 37 -26 -14 -31 -14 -46 0 -9 8 -20 15 -23 15 -4 0 -7
-72 -7 -160z"/>
<path d="M4000 3050 l0 -160 40 0 40 0 1 68 c1 37 0 81 -1 99 -2 43 32 77 68
68 44 -10 52 -30 52 -137 l0 -98 39 0 40 0 3 53 c2 28 0 83 -3 120 -6 62 -10
73 -41 104 -43 43 -107 55 -159 29 -29 -14 -34 -14 -49 -1 -9 8 -20 15 -23 15
-4 0 -7 -72 -7 -160z"/>
<path d="M8970 3050 l0 -160 40 0 40 0 0 98 c0 53 4 102 8 108 13 19 50 34 86
34 35 0 36 1 36 40 l0 40 -51 0 c-30 0 -63 -7 -80 -17 -26 -16 -29 -16 -47 0
-10 9 -22 17 -25 17 -4 0 -7 -72 -7 -160z"/>
</g>
</svg>
